/* XPM */
static char *_cc20f0a32414ae2cfc1324378bd8469XJvUuLIzVtObWNug[] = {
/* columns rows colors chars-per-pixel */
"64 64 208 2 ",
"   c #181F0A",
".  c #241F0D",
"X  c #2D1E0D",
"o  c #361D0F",
"O  c #3D1915",
"+  c #16200C",
"@  c #192B1B",
"#  c #282317",
"$  c #342316",
"%  c #172E21",
"&  c #183124",
"*  c #3D2629",
"=  c #38272C",
"-  c #2A3734",
";  c #3E3339",
":  c #541D0F",
">  c #441C13",
",  c #4B1A14",
"<  c #471C19",
"1  c #441D1B",
"2  c #541B14",
"3  c #5B1C15",
"4  c #531C1C",
"5  c #651D16",
"6  c #6A1E16",
"7  c #48240F",
"8  c #482216",
"9  c #4A231B",
"0  c #582518",
"q  c #5E231C",
"w  c #6E2117",
"e  c #622119",
"r  c #67241A",
"t  c #732216",
"y  c #772717",
"u  c #7C2418",
"i  c #7C2D18",
"p  c #452522",
"a  c #492925",
"s  c #552C22",
"d  c #592826",
"f  c #4D372B",
"g  c #57372B",
"h  c #4C2E33",
"j  c #502F35",
"k  c #483439",
"l  c #5A383A",
"z  c #712C22",
"x  c #65372D",
"c  c #623836",
"v  c #634437",
"b  c #6D4B3E",
"n  c #3B3C44",
"m  c #343F4B",
"M  c #423F47",
"N  c #5A3F43",
"B  c #1E4442",
"V  c #234644",
"C  c #3C444F",
"Z  c #274D51",
"A  c #374856",
"S  c #3C4C5B",
"D  c #265C67",
"F  c #3D5363",
"G  c #3C5669",
"H  c #38596C",
"J  c #345D72",
"K  c #3C5E73",
"L  c #27606C",
"P  c #2B6A7C",
"I  c #3B647B",
"U  c #45414B",
"Y  c #5B4345",
"T  c #414853",
"R  c #534B54",
"E  c #734E41",
"W  c #6D544A",
"Q  c #775749",
"!  c #495564",
"~  c #43647A",
"^  c #5B737C",
"/  c #797A79",
"(  c #842518",
")  c #8D2619",
"_  c #842D19",
"`  c #8A2A19",
"'  c #922616",
"]  c #972817",
"[  c #942B1A",
"{  c #9A2D1A",
"}  c #89331A",
"|  c #94331B",
" . c #9D341B",
".. c #9A391C",
"X. c #A12E1B",
"o. c #A4331B",
"O. c #AA331C",
"+. c #A23C1C",
"@. c #AC3B1C",
"#. c #B43E1D",
"$. c #913928",
"%. c #AC421E",
"&. c #B8451E",
"*. c #BC441D",
"=. c #8C4333",
"-. c #A24424",
";. c #BD4D20",
":. c #BC5936",
">. c #C74416",
",. c #C84517",
"<. c #C3461D",
"1. c #C4491E",
"2. c #CB4D1E",
"3. c #D04615",
"4. c #D14E1F",
"5. c #D3511F",
"6. c #F95E12",
"7. c #F6631B",
"8. c #FA651A",
"9. c #C34C22",
"0. c #CA4E20",
"q. c #C35121",
"w. c #CE5220",
"e. c #C0522A",
"r. c #D45421",
"t. c #DA5721",
"y. c #D75923",
"u. c #DC5B23",
"i. c #E55F23",
"p. c #E36125",
"a. c #EC6425",
"s. c #EF6E2E",
"d. c #F36723",
"f. c #F26926",
"g. c #FA6E27",
"h. c #F26B29",
"j. c #FB6E28",
"k. c #FF7027",
"l. c #FF7228",
"z. c #EE6F31",
"x. c #ED7134",
"c. c #835344",
"v. c #886758",
"b. c #B56447",
"n. c #B16D54",
"m. c #AE725C",
"M. c #937263",
"N. c #9A7A6B",
"B. c #957C72",
"V. c #A77A68",
"C. c #E77A45",
"Z. c #E57C4A",
"A. c #9F8073",
"S. c #A38275",
"D. c #A68679",
"F. c #A2897E",
"G. c #A98A7D",
"H. c #DE875C",
"J. c #E28253",
"K. c #E08559",
"L. c #DA8C67",
"P. c #D49578",
"I. c #2E6B87",
"U. c #376C86",
"Y. c #2D7084",
"T. c #2D748C",
"R. c #39738D",
"E. c #2E7791",
"W. c #277C9E",
"Q. c #2A7C9E",
"!. c #357693",
"~. c #397591",
"^. c #347D9C",
"/. c #3A7D9C",
"(. c #277DA1",
"). c #297EA2",
"_. c #307FA0",
"`. c #41748C",
"'. c #4D7B90",
"]. c #2A81A5",
"[. c #2C86AB",
"{. c #2D88AD",
"}. c #3382A2",
"|. c #3A83A2",
" X c #3387A9",
".X c #318AAE",
"XX c #2F8AB0",
"oX c #328DB2",
"OX c #388DB0",
"+X c #3691B6",
"@X c #3793B8",
"#X c #3A95BA",
"$X c #9A9795",
"%X c #A08B82",
"&X c #AC8E80",
"*X c #AE9184",
"=X c #B49689",
"-X c #BC9F93",
";X c #BFA397",
":X c #D19B81",
">X c #CCA18E",
",X c #C7A596",
"<X c #C5AA9E",
"1X c #C6ADA2",
"2X c #C9AFA3",
"3X c #CAB2A6",
"4X c #C2B1AB",
"5X c #B4C6D1",
/* pixels */
"#X+XoX+X+XoX{.{.{.{.{.{.{.{.[.].[.{.{.].W.].[.{.{.[.{.oX+X+X{.[.{.{.{.{.{.{.{.{.{.{.{.[.].].].[.{.{.[.oX+X+XoX{.{.{.{.{.{.{.{.[.",
"@X+X+X+X+XoX[.{.{.{.{.{.[.[.].].[.{.[.].W.).[.{.{.[.{.oX+X+X{.[.{.{.{.{.{.[.[.[.[.{.[.[.].].].[.{.{.[.oX+X+XoX[.{.{.{.{.{.[.[.].",
"+X+X+X+X+XoX{.{.{.{.{.{.{.[.].].[.[.].).).].[.{.{.[.{.oX+X+XoX{.{.{.{.{.{.{.{.].].{.[.).].].].[.{.{.[.oX+X+XoX{.{.{.{.{.{.{.[.].",
"#X+XoX+X+X+XoX{.[.{.[.{.+X+X.X].].].].).).[.{.{.{.[.{.oX+X+X+XoX{.{.{.{.oX+X+X[.].{.[.].].].].[.{.{.[.{.+X+X+XoX{.[.{.[.{.+X+X.X",
"#X+XoX+X+X+X+X{.[.{.{.{..X.X{.].].].).).).[.{.{.{.{.oXoXR 5 5 5 5 6 d U.oXoX.X].].[.].].).).].[.{.{.{.oX+X+X+X+X{.[.{.{.{..X.X[.",
"+X+X+X+X+X+X+XoX[.{.{.[.].].].].].].).W.).[.{.{.[.oXOX`.Y i _ } _ _ z F ).[.].].].].].].).).].[.{.{.oX+X+X+X+X+XoX[.{.{.[.].].].",
"+X+X+X+X+X+X+XoXoX{.{.{.oXoX.X].].].W.W.).[.{.[.[.oX~ d ` 1.y.p.u.r.+.3 m |.oX[.].].).W.W.].[.[.[.{.oX+X+X+X+X+XoXoX{.{.{.oXoX.X",
"+X+X+X+X+X+X+X+XoX[.[.{.+X@XoX[.].].[.].).[.{.oX}.U.Y +.0.a.g.l.k.f.t.%.x F ^.{.).].].].W.].{.oXoXoXoX+X+X+X+X+X+XoX[.[.{.+X@XoX",
"+X+X+X+X+X+X+X+XoX{.[.{.+X+XoX{.].[.+X.X].[.oX+X`.d +.f.j.f.f.f.f.f.f.k.w.q A [.).].oXoX].].{.oX+X+X+X+X+X+X+X+X+XoX{.[.{.+X+XoX",
"+X+X+X+X+X+X+X+XoXoXoXoX+X+XoX{.{.oX+XoXoXoX.X~ c -.i.k.j.f.f.f.f.f.g.k.f.q.x A I..X+X+XoXoXoX+X+X+X+X+X+X+X+X+X+XoXoXoXoX+X+XoX",
"+X+X+X+X+X+X+X+X+X+X+X+X+X+XoXoXoX+X+X+X+X+X`.l ..a.l.f.f.f.f.f.f.f.f.f.j.l.;.3 F oX+X+X+X+X+X+X+X+X+X+X+X+X+X+X+X+X+X+X+X+X+XoX",
"+X+X+X+X+X+X+X+X+X+X+X+X+X+X+X+X+X+X+X+X+X~ x } 1.a.k.f.f.f.f.d.7.7.7.d.h.k.u.+.r C /.+X+X+X+X+X+X+X+X+X+X+X+X+X+X+X+X+X+X+X+X+X",
"+X[..X+X+X+X+X+X+X+X+X+X+X+X+X+X+X+X+X+X+X! w &.d.f.f.f.f.f.d.x.Z.J.Z.z.d.f.d.u.i = ~.+X+X+X+X+X+X+X{.{.+X+X+X+X+X+X+X+X+X+X+X+X",
".X).[.+X+X+X+X+X+X+X+X+X+X+X+X+XoXoX+X+X+X! w q.k.f.f.f.f.f.7.Z.>X4X>XC.7.f.j.a.} = !.+X+X+X+X+XoX.X].[.+X+X+X+X+X+X+X+X+X+X+X+X",
"].).[.+X+X+X+X+X+X+X+X+X+X+X+X+X[.].oX|.! c ..u.k.f.f.f.f.d.7.J.4X5X4XJ.7.f.k.f.%.q M U.oX+X+X+X.X].).[.+X+X+X+X+X+X+X+X+X+X+X+X",
"(.].[.oXoX+X+X+X+X+X+X+X+XoX{.oX].).[.I q | r.a.g.f.f.f.f.f.7.Z.>X4X>XC.7.f.g.f.<.( 3 n ).{.{.[.].).].[.oXoX+X+X+X+X+X+X+X+XoX{.",
"[.{.{.{.oX+X+X+X+X+X+X+X+XoX{.{.[.[.].K 4 +.d.f.f.f.f.f.f.f.d.x.Z.J.Z.z.d.f.g.f.<.( 2 n Q.[.{.[.].[.{.{.{.oX+X+X+X+X+X+X+X+XoX{.",
"oX+X+X+X+X+X+X+X+X+X+X+X+X+XoXoXoXoX|.! y ;.k.g.f.d.d.f.f.f.f.d.7.7.7.d.f.f.g.f.<.( 3 k U..XoXoXoXoX+X+X+X+X+X+X+X+X+X+X+X+X+XoX",
"#XoXoX+X+X+X+X+X+X+X+X+X+X+X+X+X+X|.U u @.u.g.h.d.7.7.f.f.f.f.f.f.f.f.f.f.f.g.f.<.( 6 , p I +X@X#X+XoXoX+X+X+X+X+X+X+X+X+X+X+X+X",
"#X{.{.oX+X+X+X+X+X+X+X+X+X+X+X+X+X/.h ` t.f.f.7.s.J.C.7.7.f.f.f.f.f.f.f.f.f.g.f.*.` ( 5 , F oXoXoXoX{.{.oX+X+X+X+X+X+X+X+X+X+X+X",
"#XoX[.{.oX+X+X+X+X+X+X+X+X+X+X+X+X/.j | a.k.f.7.Z.,XP.f.7.f.f.f.f.f.f.f.f.f.g.f.&.) { u , S ].].].].{.{.{.oX+X+X+X+X+X+X+X+X+X+X",
"#X{.].{.oXoXoX+X+X+X+X+X+X+X+X.X~ N i *.f.g.s.H.>X4X1XP.C.7.f.f.f.f.f.7.7.f.g.f.&.) { ( 3 a S T.).].].[.{.oXoXoX+X+X+X+X+X+X+X+X",
"#X[.].{.[.[.[.oX+XoXoXoXoX+XoX[.U y &.i.f.8.s.P.1X1X1X,XJ.7.d.f.f.f.h.x.x.h.g.f.&.) { ` t 2 9 I ].].].].{.[.[.[.oX+XoXoXoXoX+XoX",
"#X[.].[.[.[.{.{.{.{.{.{.{.{.{.[.U t w.j.f.d.h.z.L.4X>XC.h.d.f.f.f.7.z.P.:Xx.8.f.&.) [ { [ r 9 I [.[.].].[.[.[.{.{.{.{.{.{.{.{.{.",
"#X[.[.oXoXoX{.[.[.[.[.[.[.[._.I l | p.k.f.f.f.6.x.P.K.7.7.f.f.f.f.7.s.P.P.x.8.f.*.) ' { X.y 1 A !.[.[.[.oXoXoX{.[.[.[.[.[.[.[.[.",
"#XXX{.+X+XoX{.{.{.{.{.{.{.{.K q | 2.a.g.f.f.f.f.h.s.h.f.f.f.f.f.f.f.f.h.s.f.j.f.*.) ' { { u 3 , n ^.{.oX+X+XoX{.{.{.{.{.{.{.{.{.",
"#X{.[.{.{.{.{.{.{.{.{.{.^.K l | 0.a.f.f.f.f.f.f.d.7.7.f.f.f.f.f.f.f.f.7.8.g.p.9.O.[ =.=.{ ' u 5 p C U.{.{.{.{.{.{.{.{.{.{.{.{.[.",
"#XoX{.[.[.[.[.{.{.{.{.{.I d | 2.a.g.f.f.f.f.f.f.f.f.f.f.f.f.f.f.f.f.f.f.f.g.9.[ ' $.c.c.{ { [ u 3 , C ].[.[.[.{.{.{.{.{.[.[.[.{.",
"#X+XoX{.{.{.{.{.{.{.}.G x ..&.2.a.k.f.f.f.f.f.f.f.f.f.f.f.f.f.f.f.f.f.f.a.u.#.[ ' | $.$.[ { { [ ( 5 p n U.{.{.{.{.{.{.{.{.{.{.oX",
"#X+XoXoXoXoXoX{.[.[.I l | 1.4.1.t.a.f.f.f.f.f.f.f.f.f.f.f.f.f.f.f.f.f.g.a.2.@.[ [ { ] ] [ { { { ( w 3 , S Q.[.{.{.{.{.oXoXoXoXoX",
"#X+XoX+X+X+X+X{.[.G r  .1.1.1.1.1.r.a.g.f.f.f.f.f.f.f.f.f.f.f.f.f.f.f.g.a.5.@.[ [ [ [ [ [ { [ u 5 5 5 5 2 n E.{.{.{.{.oX+X+X+X+X",
"#X+XoX+X+X+X+X{.J k ( &.5.,.>.>.*.1.r.a.f.g.f.f.f.f.f.f.f.f.f.f.f.g.f.a.r.&.o.[ [ { { { { [ u 6 3 5 6 6 5 p Z T.{.{.{.oX+X+X+X+X",
"#X+XoX+X+XoX{.{.1 w  .&.2.1.1.1.1.1.*.r.d.g.f.f.f.f.f.f.f.f.f.f.f.g.a.r.#.{ [ [ [ [ [ { { u 5 5 5 5 5 5 6 3 X B {.{.{.{.oX+X+X+X",
"#X+XoX+X+XoX{.{.1 _ *.>.e.b.m.n.:.>.*.1.r.r.u.a.g.g.g.g.g.g.g.a.t.r.r.2.#.{ [ { X.[ ( u u w 5 5 5 5 5 5 6 3 X B {.{.{.{.{.oXoX{.",
"#X+XoX+X+X+X+X{.1 } 4.3.:.S.$XF.b.>.>.1.<.&.1.u.d.a.a.a.a.a.d.u.<.*.<.2.&. .[ [ [ ` 6 3 5 5 5 5 5 5 5 5 6 3 X B {.[.{.{.{.{.[.].",
"+X+X+X+X+X+X+X{.1 } 4.3.:.S.$X%Xb.>.>.1.1.<.1.2.r.w.w.w.w.w.r.2.1.<.1.2.<.O.( t w w 6 5 5 5 5 5 5 5 5 5 6 3 X B {.[.{.{.[.].].).",
"+X+X+X+X+X+X+XoX1 _ <.,.e.n.V.m.:.>.1.1.1.1.1.<.*.*.*.*.*.*.*.<.1.1.1.*.@.[ t 3 3 3 q q q e 5 5 5 5 5 5 6 2 X V oX{.{.{.[.).].].",
"#X+XoX+X+X+X+X+X1 t O.*.0.9.9.9.9.1.1.1.1.1.1.1.1.1.1.1.1.1.1.1.1.2.<.@.` w 5 5 5 e s f f q 5 5 5 5 5 5 3 > . V +XoX{.{.[.].[.[.",
"+X+X+X+X+X+X+X+XG h y %.4.,.>.>.>.1.1.1.1.9.1.>.>.1.1.1.1.1.1.1.1.2.1.O.u 5 3 5 6 e f f f s 5 5 5 5 6 5 , # V Y.+XoX[.[.{..XoXoX",
"+X+X+X+X+X+X+X+XoXS 2 ..2.1.1.1.1.1.1.1.1.1.1.9.9.1.1.1.1.1.1.1.1.1.*.O.( w 5 5 6 e s f f q 5 5 5 5 6 5 o & E.+X+XoX{.{.oX+X+XoX",
"#X+XoX+X+X+X+X+X+XS , ` <.4.5.2.1.1.1.1.1.>.9.n.m.e.>.1.1.1.1.2.2.&.o.{ [ ` t 3 3 5 q q q e 5 5 5 6 5 2 X & E.+X+X+X+X+X+X+X+XoX",
"+X+X+X+X+X+X+XoX{.K a r [ +.&.*.1.2.1.1.1.>.9.m.m.e.>.1.1.1.1.1.*.o.[ [ { { ` t w w 6 5 6 6 5 6 5 5 2 O # V ^.+XoX{.oXoXoX+X+XoX",
"oX+X+X+X+X+X+XoX[.[.I.k 2 2 y O.<.4.1.1.1.1.1.e.e.9.1.1.1.1.2.&.o.[ [ [ { { [ [ [ ` w 5 6 6 6 6 5 2 o . D .X+X+XoX[.[.[.{.oXoXoX",
"oX+XoXoX+X+X+X+XoX{.].H m A k t _ ..1.r.2.0.2.3.3.2.0.2.2.2.r.&.{ [ X.X.X.X.X.X.O.{ u 5 3 2 > > p U A Z T.+X+X+X+XoX{.{.{.{.{.{.",
"oX+X+X+X+X+X+X+XoX[.[.{.oXoXH , O q @.4.1.1.1.1.1.1.1.1.1.1.2.#.{ [ { { { { { { { [ t 3 , X   + - ^.+XoX+X+X+X+X+XoX[.[.{.oXoXoX",
"oX+X+X+X+X+X+X+XoX{.{.oX+X+X^.H J F x _ i i i i i i i i i y y t 5 : 7 7 7 7 0 7 0 7 7 o X - D L Y..X+X+X+X+X+X+X+XoX{.{.oX+X+XoX",
"oX+X+X+X+X+X+X+X+XoXoXoX+X+XoX{.oX/.n O * * * * * * O O O > 1 1 9 $ +   + @ % % % % & @ @ L oX+X+X+X+X+X+X+X+X+X+X+XoXoXoX+X+XoX",
"+X+X+X+X+X+X+X+X+X+X+X+X+X+XoXoXoXoX!.R.~.~.~.~.~./.S > 1 a v E b g $ O - P Q.T.T.T.T.T.T.}.+X+X+X+X+X+X+X+X+X+X+X+X+X+X+X+X+XoX",
"+X+X+X+X+X+X+X+X+X+X+X+X+X+X+X+X+X+X+X+X+X+X+X+X+X+XH , s b v.N.M.Q g 0 ; |.+X+X+X+X+X+X+X+X+X+X+X+X+X+X+X+X+X+X+X+X+X+X+X+X+X+X",
"+X+X+X+X+X+X+X+X+X+X+X+X+X+X+X+X+X+X+X+X+X+X+X+X+X+XH , x v.N.G.S.M.E s ; |.+X+X+X+X+X+X+X+X+X+X+X+X+X+X+X+X+X+X+X+X+X+X+X+X+X+X",
"+XoXoX+X+X+X+XoX+X+X+X+X+X+X+X+X+X+X+X+X+X+X+X+X|.I ; 9 Q N.D.G.G.S.v.g p T ~.+X+X+X+X+X+X+X+X+X+X+XoXoX+X+X+X+X+X+X+X+X+X+X+X+X",
"oX{.oX+X+X+X+X+X+X+X+X+X+X+X+XoXoXoX+X+X+X+X+XoXU.p 8 g v.&XD.S.S.&XA.W 9 1 T .XoXoX+X+X+X+X+XoX+XoX{.oX+X+X+X+X+X+X+X+X+X+X+X+X",
"{.[.oX+X+X+X+X+X+X+X+X+X+X@XoX[.[.oX+X@X+X+X XG h 9 g b M.D.S.S.S.D.N.v.g a p M U.{.oX@X+X+X+XoX{.{.[.oX+X+X+X+X+X+X+X+X+X+X+X+X",
"[.[.{.oX+X+X+X+X+X+X+X+XoXoX[.].].[..X.X.XoX}.; 9 g E v.S.*X&X&X&X*XG.N.Q v a , H [.{..X.X.XoX{.[.[.[.{.oX+X+X+X+X+X+X+X+XoXoX{.",
"[.{.[.{.oX+XoXoXoXoX+XoX{.].).].].].].(.).[.].; 0 b v.A.=X<X,X,X,X<X;X&XM.v.x , H ].].).W.].{.{.{.{.{.[.{.oX+XoXoXoXoX+XoX{.].].",
"oX{.[.{.{.{.{.{.{.{.{.{.{.].).].].].).W.).[.[.J U Q M.G.;X3X2X2X2X3X1X=XN.v.Y C I.].).).W.].{.{.{.{.{.{.{.{.{.{.{.{.{.{.{.{.].].",
"+XoX[.{.[.[.[.[.[.[.[.[.[.].].].].].W.W.).[.{.{.U.W M.D.-X2X1X<X<X2X<X=XN.v.! ].].].).W.W.].{.{.{.{.{.{.{.[.[.[.[.[.[.[.[.[.].).",
"#XoX[.{.{.{.{.{.{.{.{.[.].].].].].].).W.).[.{.{.}.`./ D.-X2X1X<X<X2X<X=XB.^ !.].].].).W.W.].{.{.{.{.{.{.{.{.{.{.{.{.{.{.[.].].].",
"+X{.[.[.[.[.{.{.{.{.{.[.].[.[.].].].).).].[.{.{.{.{.'.D.-X2X1X<X<X2X<X=X/ ^.[.].].].).(.).[.{.{.{.{.{.{.[.[.[.{.{.{.{.{.[.].[.[.",
"+X{.{.oXoX{.{.{.{.{.{.[.].[.{.].].].).).].[.{.{.{.{.{.{.oXoX{.{.{.{.{.{.[.[.{.[.].].).).].[.{.{.{.{.{.{.oXoX{.{.{.{.{.{.[.].[.{.",
"#X{.{.+X+XoX{.{.{.{.{.{.{.{.{.{.[.).).).].[.{.{.{.[.{.oX+X+X{.[.{.{.{.{.{.{.{.{.[.].).).].[.{.{.{.{.[.oX+X+XoX{.{.{.{.{.{.{.{.[.",
"#X{.[.oXoX{.{.{.{.{.{.{.{.{.{.{.[.).).].[.{.{.{.{.{.{.{.{.{.{.{.{.{.{.{.{.{.{.{.[.].).).[.{.{.{.{.{.{.{.{.oX{.{.{.{.{.{.{.{.{.[.",
"#XoX{.{.{.{.{.{.{.{.{.{.{.{.{.{.[.).).[.{.{.{.{.{.[.[.{.{.{.{.{.{.{.{.{.{.{.{.{.[.].).).{.{.{.{.{.{.[.[.{.{.{.{.{.{.{.{.{.{.{.{.",
"#X+XoX+X+XoX{.{.{.{.{.{.{.{.{.{.[.).).].{.{.{.{.{.[.].oX+X+X{.[.{.{.{.{.{.{.{.{.[.].).).[.{.{.{.{.[.].[.+X+XoX{.{.{.{.{.{.{.[.{."
};
