/* XPM */
static char *_86ec80934374af9c409c7a20e948c8bJ2On0FweA49hvLdk[] = {
/* columns rows colors chars-per-pixel */
"64 64 181 2 ",
"   c #161B06",
".  c #191D07",
"X  c #171C08",
"o  c #1B1F0A",
"O  c #1E1E10",
"+  c #231F18",
"@  c #1E200D",
"#  c #1D2413",
"$  c #1D2817",
"%  c #1E2719",
"&  c #1E2A1B",
"*  c #21210F",
"=  c #242213",
"-  c #292616",
";  c #272816",
":  c #2A2914",
">  c #262419",
",  c #2B251B",
"<  c #222A1C",
"1  c #2D291C",
"2  c #322B17",
"3  c #332C1D",
"4  c #3B3215",
"5  c #35311C",
"6  c #3B331B",
"7  c #1F2E21",
"8  c #1E3026",
"9  c #1E362D",
"0  c #242B22",
"q  c #2C2B24",
"w  c #2F2F2A",
"e  c #342D22",
"r  c #382F25",
"t  c #302F2A",
"y  c #283127",
"u  c #21352C",
"i  c #2E312C",
"p  c #363023",
"a  c #3C3325",
"s  c #33332B",
"d  c #3E3529",
"f  c #3F392F",
"g  c #263632",
"h  c #223A33",
"j  c #223E3A",
"k  c #3B3B34",
"l  c #413617",
"z  c #42361B",
"x  c #44391C",
"c  c #4A3C1B",
"v  c #503F1D",
"b  c #413626",
"n  c #443A25",
"m  c #4A3D21",
"M  c #413629",
"N  c #453929",
"B  c #4A3E2B",
"V  c #22403E",
"C  c #2F443F",
"Z  c #4E401F",
"A  c #54431E",
"S  c #5B481F",
"D  c #4D4325",
"F  c #4E402D",
"G  c #554521",
"H  c #594720",
"J  c #5D4921",
"K  c #53442E",
"L  c #554D2D",
"P  c #5C4C2C",
"I  c #474031",
"U  c #474736",
"Y  c #4D4433",
"T  c #4C4B3E",
"R  c #564630",
"E  c #584732",
"W  c #544935",
"Q  c #5C4B33",
"!  c #5A4F3B",
"~  c #604C22",
"^  c #66542B",
"/  c #69562D",
"(  c #6D5A2E",
")  c #614F34",
"_  c #645136",
"`  c #6A5638",
"'  c #6E593A",
"]  c #725D31",
"[  c #735C3C",
"{  c #736032",
"}  c #7B6534",
"|  c #79613F",
" . c #224443",
".. c #2A4546",
"X. c #23494C",
"o. c #384A45",
"O. c #244E53",
"+. c #344C51",
"@. c #304F58",
"#. c #265156",
"$. c #23545C",
"%. c #2B515C",
"&. c #355557",
"*. c #395857",
"=. c #34545A",
"-. c #3A5C5D",
";. c #255662",
":. c #255A66",
">. c #2A5A66",
",. c #365D68",
"<. c #2A616E",
"1. c #3F6162",
"2. c #3C646C",
"3. c #276475",
"4. c #2D6273",
"5. c #27677A",
"6. c #2A6778",
"7. c #27697E",
"8. c #2B6A7E",
"9. c #366676",
"0. c #3B6571",
"q. c #3F6C77",
"w. c #3D6F7D",
"e. c #424D48",
"r. c #40514F",
"t. c #4B574A",
"y. c #4E5B49",
"u. c #525548",
"i. c #435553",
"p. c #465B5A",
"a. c #645A45",
"s. c #7E6441",
"d. c #69705F",
"f. c #436A6E",
"g. c #426A73",
"h. c #486B70",
"j. c #6B786B",
"k. c #806E3E",
"l. c #816742",
"z. c #856A44",
"x. c #8A6D46",
"c. c #826A48",
"v. c #8E7048",
"b. c #2A6D85",
"n. c #276F89",
"m. c #336E84",
"M. c #2F7287",
"N. c #26718D",
"B. c #2C738C",
"V. c #347186",
"C. c #32738B",
"Z. c #2A7693",
"A. c #2C7996",
"S. c #277B9D",
"D. c #2A7B9C",
"F. c #307793",
"G. c #317A93",
"H. c #327D9A",
"J. c #277DA1",
"K. c #297EA2",
"L. c #427786",
"P. c #37819B",
"I. c #2A81A5",
"U. c #2C86AB",
"Y. c #2D88AD",
"T. c #2D89AF",
"R. c #3485A4",
"E. c #3688A7",
"W. c #3A88A5",
"Q. c #338BAD",
"!. c #318AAE",
"~. c #3B8CAA",
"^. c #308BB0",
"/. c #328DB2",
"(. c #338EB3",
"). c #358DB2",
"_. c #348FB4",
"`. c #3691B6",
"'. c #3890B4",
"]. c #3893B9",
"[. c #3A95BA",
/* pixels */
"[.`._.`.`./.Y.Y.Y.Y.Y.Y.Y.Y.U.I.U.Y.Y.I.S.I.U.Y.Y.U.Y./.`.`.Y.U.Y.Y.Y.Y.Y.Y.Y.Y.U.Y.Y.U.I.I.I.U.Y.Y.U.^.`.`./.Y.Y.Y.Y.Y.Y.Y.Y.U.",
"].`.`.`.`./.U.Y.Y.Y.Y.Y.U.U.I.I.U.Y.U.I.S.K.U.Y.Y.U.Y./.`.`.Y.U.Y.Y.Y.Y.Y.U.U.w.V.U.U.U.I.I.I.U.Y.Y.U.^.`.`./.U.Y.Y.Y.Y.Y.U.U.I.",
"`.`.`.`.`./.Y.Y.Y.Y.Y.Y.Y.U.I.I.U.U.I.K.K.I.U.Y.Y.U.Y./.`.`.^.Y.Y.Y.U.F.F.F.A.e.o.8.I.K.I.I.I.U.Y.Y.U.^.`.`./.Y.Y.Y.Y.Y.Y.Y.U.I.",
"[.`._.`.`.`./.Y.U.Y.U.Y.`.`.!.I.I.I.I.K.K.U.Y.Y.Y.U.Y./.`.`.`./.U.L.u.K B a r q > C 4.Z.I.I.I.U.Y.Y.U.Y.`.`.`./.Y.U.Y.U.Y.`.`.!.",
"[.`._.`.`.`.`.Y.U.Y.Y.Y.!.!.Y.I.I.I.K.K.K.U.Y.Y.Y.Y./._.`.`.`./.H.' ' ' Q M 1 1 B W T +.4.Z.K.U.Y.Y.Y./.`.`.`.`.Y.U.Y.Y.Y.!.!.U.",
"`.`.`.`.`.`.`.^.U.Y.Y.U.I.I.I.I.I.I.K.S.K.U.Y.Y.U./.`.`.`.`.`./.,.` ` ' B = . a R K R p % 9 #.b.I.Y./.`.`.`.`.`.^.U.Y.Y.U.I.I.I.",
"`.`.`.`.`.`.`._./.Y.Y.Y./.).!.I.I.I.S.S.K.U.Y.U.U./.`.`.`.`.`.`.@.F K R :   . r B K 3 o . o # < V B./.`.`.`.`.`._./.Y.Y.Y./.).!.",
"`.`.`.`.`.`.`.`./.U.U.Y.`.]./.U.I.I.U.I.K.U.Y./.Y./.`.`.`.`.`.'.=.r N a o * * , a a @ . - a a 1 < 6.!.`.`.`.`.`.`./.U.U.Y.`.]./.",
"`.`.`.`.`.`.`.`./.Y.U.Y.`.`./.Y.I.U.`.!.I.U./.`.`.`.E.2.m.).w.u.Y M a 1 - d 3 = 1 - . . r M a , < 4.!.`.`.`.`.`.`./.Y.U.Y.`.`./.",
"`.`.`.`.`.`.`.`._./././.`.`./.Y.Y./.`.)././._.`.`._.T R b g N K K N r = - r = o , = . o 1 r = . @ #.!.`.`.`.`.`.`._./././.`.`./.",
"`.`.`.`.`.`.`.`.`.`.`.`.`.`._.^./.`.`.`.`.`.`.`.).f.B B - o p K N = = @ @ = o 1 , = @ o = = o o . h R.`.`.`.`.`.`.`.`.`.`.`.`._.",
"`.`.`.`.`.`.`.`.`.`.`.`.`.`.`.`.`.`.`.`.`.`.`.`.P.M r 1 . . * a , . o o . @ b B a e , o . * o . @ 0 M._.`.`.`.`.`.`.`.`.`.`.`.`.",
"`.U.!.`.`.`.`.`.`.`.`.`.`.`.`.`.`.`.`.`.`.R.R.`.g.B B a , . - 1 , * @ o . 5 E K N , = o o . o 6 B p %.I.`.`.`.`.`.`.`.`.`.`.`.`.",
"!.K.U.`.`.`.`.`.`.`.`.`.`.`.`.`././.`.`.m.f s &.R K R B , 3 K a q > * o . p R K 1 . . o o . - R R M g Z.`.`.`.`.`.`.`.`.`.`.`.`.",
"I.K.U.`.`.`.`.`.`.`.`.`.`.`.`.`.U.I.).`.+.1 @ 3 R K N - o B E N = o . o * e a , . . . . . . * B K 1 # >.).`.`.`.`.`.`.`.`.`.`.`.",
"J.I.U.^._.`.`.`.`.`.`.`.`./.Y.^.I.K.H.p.U 1 . 3 B B - o o p F - . o : B F a , o . @ = = = = @ a 3 . @ j A._.`.`.`.`.`.`.`.`.^.Y.",
"U.Y.Y.Y./.`.`.`.`.`.`.`.`./.Y.Y.U.U.p.K K M * - d e = , = = 1 @ = 1 B R K a 1 , b F B a e 1 @ - = = r k 4./.`.`.`.`.`.`.`.`./.Y.",
"_.`.`.`.`.`.`.`.`.`.`.`.`.`.!.p.r.=.U R B , o o r - o 3 3 - - o = , a N p - o n R K K N r = @ . @ a d a ..R.`.`.`.`.`.`.`.`.`._.",
"[././.`.`.`.`.`.`.`.`.`.`.`.0.K b = e a = - b - = o * F R B r * . . r a = . X a R K F r * . . . = a r * $ 8.`.`.`.`.`.`.`.`.`.`.",
"[.Y.Y._.`.`.`.`.`.`.`.`.`.`.i.N - o , , - K Q 3 @ * a R K a 1 - @ @ - 3 , * @ p B B r , - @ @ @ * , , . @ X.).`.`.`.`.`.`.`.`.`.",
"[.^.U.Y._.`.`.`.`.`.`.`.`.~.k.] ^ ^ / / ] } } } } ~ ^ ] ( / / / ^ ^ ( ] } } { ( P / / / / ^ ^ / ^ A c o o u R.`.`.`.`.`.`.`.`.`.",
"[.Y.I.Y.^././.`.`.`.`.`.`.E.L A A G A A A A A v c x D Z A J J J J J J G c x c A J J J J J J J J H 6 6 o o & B./.`.`.`.`.`.`.`.`.",
"[.U.I.Y.U.U.U./.`._._._._.W.L A A A A A A A A A A A A c x z 6 z z c Z c A H J J S A J J J J J J G 5 3 o o & 7.U./.`._._._._.`./.",
"[.U.I.U.U.U.Y.Y.Y.Y.Y.Y.Y.P.H H H H J J S _ a.A H J J J J H A c z x z Z A A A A P a.G A A A A A c 1 ; o o $ 5.U.Y.Y.Y.Y.Y.Y.Y.Y.",
"[.U.U././.^.Y.U.U.U.U.U.U.I.Y A c z c c A P W A J J J J J J J ~ ~ J H G G H H A P ! G A H A A c x 6 = . o $ 8.U.U.U.U.U.U.U.U.U.",
"[.Y.Y.`.`./.Y.Y.Y.Y.Y.Y.Y.Y.f.y.y.y.y.U 6 4 : 4 6 c c c c c c c c c c c c c c c c 4 c c c x c m n 3 * . . w V.U.Y.Y.Y.Y.Y.Y.Y.Y.",
"[.Y.U.Y.Y.Y.Y.Y.Y.Y.Y.Y.Y.Y.Y.Y.Y.Y.Y.>.. o o . . . . = 1 = . . . . o , - . . . . . . . X = a a a 3 = o * k V.U.Y.Y.Y.Y.Y.Y.Y.U.",
"[./.Y.U.U.U.U.Y.Y.Y.Y.Y.Y.Y.Y.Y.Y.Y.U.$.= 1 , , o . ; z 3 o . o o o . = 6 6 = * 1 , 1 * . 3 a a d r , = @ s b.U.Y.Y.Y.Y.U.U.U.Y.",
"[.`./.Y.Y.Y.Y.Y.Y.Y.Y.Y.Y.Y.Y.Y.Y.U.I.$.; 3 1 , . - z 6 @ . . . . . .   = 6 6 , 3 1 1 * o a N a r * @ @ . 0 b.U.Y.Y.Y.Y.Y.Y.Y.^.",
"[.`._././._./.Y.U.Y.Y.Y.Y.Y.Y.Y.Y.Y.I.$.: 3 1 , . : 6 = - 2 2 2 6 l l l l z z 6 1 1 1 @ o 3 b p @ . . . . $ b.Y.Y.Y.Y./._././._.",
"[.`._.`.`.`.`.Y.U.Y.Y.Y.Y.Y.Y.Y.U.U.I.;.3 z 6 1 = = = - 3 6 6 6 z c c c c c 6 4 z z 3 - o = 1 = . = 1 1 1 q b.Y.Y.Y.Y./.`.`.`.`.",
"[.`._.`.`.`.`.Y.U.Y.Y.Y.Y.Y.Y.Y.U.I.I.&.3 c z 1 1 @ . o o . o = # # = = = = * : z c 5 1 = @ , > a B F M r i M.Y.Y.Y.Y./.`.`.`.`.",
"[.`._.`.`./.Y.Y.Y.Y.Y.Y.Y.Y.Y.Y.U.K.Z.n z A Z 1 1 @ . o o o o = = = = = = > = 2 A c 5 1 = . . a R K B a a i B.U.Y.Y.Y.Y./.`.`.`.",
"[.`._.`.`./.Y.Y.Y.Y.Y.Y.Y.U.U.U.I.K.*.A x J A 6 1 @ . o o o o . . . o = = = = 3 A H 6 3 = . - K K K B F N i C.!.Y.Y.Y.U.Y././.Y.",
"[.`._.`.`.`.`.Y.U.Y.Y.Y.Y.U.I.I.I.A.D G z J A z 1 o . o o o o o o o o . o o . 2 J J x 3 = . 3 R K K K R b & M.`.Y.U.Y.Y.Y.Y.U.I.",
"`.`.`.`.`.`.`.Y.U.Y.Y.U.I.I.I.I.I.-.H c z J A 6 1 @ . o o o o o o o o o o o . 2 J J c 3 = . - K K K F N - & C._.Y.U.Y.Y.U.I.I.K.",
"`.`.`.`.`.`.`./.Y.Y.Y.U.K.I.I.I.A.D H z z J A z 1 o . o o o o o o o o o o o . 2 J H c 3 r 3 * a F F a , o < m.)./.Y.Y.Y.U.K.I.I.",
"[.`._.`.`.`.`.`./.Y.Y.U.I.U.U.I.-.H A 3 z J A z 1 o . o o o o o o o o o o o . 2 J H x 6 d r o r a a = = . $ 6.).`./.Y.Y.U.I.U.U.",
"`.`.`.`.`.`.`.`./.U.U.Y.!././.D.D H z > z J A z - o . o o o o o o o o o o o . 2 J H c 3 e , . : d - . . * s 9.).`./.U.U.Y.!././.",
"`.`.`.`.`.`.`.`./.Y.Y./.`.`._.-.H A 3 O z J A z - o . o o o o o o o o o o o . 2 J H c 3 > = . . 1 = . o r f 0.).`./.Y.Y./.`.`._.",
"[.`._.`.`.`.`.`.`.`.`.`.`.`.R.D H z - . z ~ A z - o . o o = = o o o o o o o . 2 J H c 3 = : 1 * = @ . - M s ,.!.`.`.`.`.`.`.`./.",
"`.`.`.`.`.`.`./.Y./.^./.`.`.1.H A 3 o . z ~ A z - o . . @ 1 , o o o o o o o . 2 J H c 2 B ' ` B 3 = . ; F B =.!./.Y./.^./.`.`._.",
"/.`.`.`.`.`.`.^.U.U.U.Y./.R.D H z - @ O z J A z 1 o * - * @ o o o o o o o o . 2 J H x a ' ' [ E e , o = a r V E.^.U.U.U.Y./._./.",
"_.`.`.`.`.`.`.`./.Y.Y.Y.Y.-.S A 3 o @ O z J A z 1 * a a , o . . o o o o o o . 2 J H z n ' ' E a , = o o , , h R.`./.Y.Y.Y.Y.Y.Y.",
"_.`.`.`.`.`.`.`./.U.U.Y.R.D H z - - p , z J A z 1 @ r - . : p = . o o o o o . 2 J H x b E B 1 = = : , @ = = u R.`./.U.U.Y././.^.",
"_.`.`.`.`.`.`.`./.Y.Y.^.1.A A 3 o r d 1 z J A z 1 = 1 = = a a = . o o o o o . 2 A A z 1 N a = o p M 3 o o @ y R.`./.Y.Y.^.`.`._.",
"_.`.`.`.`.`.`.`.`._._.R.D H z - . , , O z ~ A z 1 N K N = 1 - @ o o o o o .   2 P Q F a e a @ . 3 r = . o o i R.`.`._._._.`.`./.",
"`.`.`.`.`.`.`.`.`.`.`.1.A A 3 > o - 3 . z H A 6 a ) _ E , . 3 K a . o . @ 3 - 6 [ [ _ K e , @ . = = @ - 1 = q H.`.`.`.`.`.`.`._.",
"`.`.`.`.`.`.`.`.`.`.E.D H F 3 , e _ [ p z A c 6 B [ [ ' e * K R r O     K [ ` K _ ' R p , = . @ = @ 3 d d 1 & F.`.`.`.`.`.`.`.`.",
"`.`.`.`.`.`.`.`.`.`.2.A K B > o 3 ` R p z c 6 6 p Q _ ) 3 . a a o 6 P P ' ' ' K K R r 1 ; . 1 a r = 3 a a * & F.`.`.`.`.`.`.`.`.",
"`././.`.`.`.`.`.`.!.t.' R K [ ` [ E M Q _ m z m K Q _ _ 3 3 _ Q P x.x.v.s._ ' B M b = a 3 . a M a * , e = . & G.`.`.`.`.`.`.`.`.",
"/.Y.^.`.`.`.`.`.`.W.d.c.l.s.x.x.s.[ | s.| ' ' [ s.s.[ ' Q | z.z.l.z.z.s.[ s.z.[ a r o > = = 1 r - . = , @ o & G.`.`.`.`.`.`.`.`.",
"Y.U.^.`.`.`.`.`.`.~.j.c.x.s.Q K b [ x.x.' F [ x.x.x.[ B s.x.z.z.z._ K N ) x.x.| e , - a a e 1 > o o @ o . o & F.`.`.`.`.`.`.`.`.",
"U.U.Y./.`.`.`.`.`.~.j.x.| F = = o K ' ) r + K s.| ` N - [ z.x.l.Q , = o a ` ` N , 1 B R K B a = . o o o o o & F.`.`.`.`.`./.^.Y.",
"U.Y.U.Y./.`._._._.!.h.R N 1 , @ - N N a a r 3 K B a * o B Q K B 3 , = @ a N a 1 = a R K K N 1 o . o o o @ 7 #.R._._._.`./.Y.I.I.",
"/.Y.U.Y.Y.Y.Y.Y.Y.R.9.s e = 3 a - p a 3 a : o p d 1 . . 3 N a r > 1 a 1 3 a e = . 3 Q ) F , o . o o @ & j 3.I.Y.Y.Y.Y.Y.Y.Y.I.I.",
"`.^.U.Y.U.U.U.U.U.I.4.t , . , 1 = - e = , = . = e = . . o e 3 1 o = 1 = = e , o . , d B a o . o o @ 9 ;.A.U.U.U.U.U.U.U.U.U.I.K.",
"[.^.U.Y.Y.Y.Y.Y.Y.I.>.0 = # # # @ @ = @ * @ o . = * o o o = = = o o * . . = = . . * e r 1 . o o # V b.I.Y.Y.Y.Y.Y.Y.Y.Y.U.I.I.I.",
"`.Y.U.U.U.U.Y.Y.Y.U.5.$.O.O.O.X. .j 9 8 & $ # @ @ . o o o . o . o o . . - a a 3 = o > 1 = . o @ V B.U.Y.U.U.U.Y.Y.Y.Y.Y.U.I.U.U.",
"`.Y.Y.^.^.Y.Y.Y.Y.U.U.I.K.I.I.S.D.Z.N.n.b.5.$. .u 7 $ # @ o @ @ # # # < Y W I f q > = , # # $ u b.U.Y.Y.^.^.Y.Y.Y.Y.Y.Y.U.I.U.Y.",
"[.Y.Y.`.`./.Y.Y.Y.Y.Y.Y.Y.Y.Y.Y.U.K.K.K.I.U.U.I.A.7.:.X.j h j  .O.$.:.<.q.g.2.>.%.O.X.O.#.;.<.B.U.Y.U.^.`.`./.Y.Y.Y.Y.Y.Y.Y.Y.U.",
"[.Y.U.^.^.Y.Y.Y.Y.Y.Y.Y.Y.Y.Y.Y.U.K.K.I.U.Y.Y.Y.Y.Y.U.I.I.I.I.I.I.I.U.U.U.U.U.U.I.K.D.D.I.U.U.Y.Y.Y.Y.Y.Y.^.Y.Y.Y.Y.Y.Y.Y.Y.Y.U.",
"[./.Y.Y.Y.Y.Y.Y.Y.Y.Y.Y.Y.Y.Y.Y.U.K.K.U.Y.Y.Y.Y.Y.U.U.Y.Y.Y.Y.Y.Y.Y.Y.Y.Y.Y.Y.Y.U.I.K.K.Y.Y.Y.Y.Y.Y.U.U.Y.Y.Y.Y.Y.Y.Y.Y.Y.Y.Y.Y.",
"[.`._.`.`./.Y.Y.Y.Y.Y.Y.Y.Y.Y.Y.U.K.K.I.Y.Y.Y.Y.Y.U.I./.`.`.Y.U.Y.Y.Y.Y.Y.Y.Y.Y.U.I.K.K.U.Y.Y.Y.Y.U.I.U.`.`./.Y.Y.Y.Y.Y.Y.Y.U.Y."
};
