/* XPM */
static char *_85584d813294fc1ab725fbebe7b7baaTLpcPdmDZpUjaVcv[] = {
/* columns rows colors chars-per-pixel */
"64 64 27 1 ",
"  c #277B9E",
". c #277C9E",
"X c #287B9E",
"o c #287C9F",
"O c #277DA1",
"+ c #297FA3",
"@ c #2980A3",
"# c #2980A4",
"$ c #2C83A7",
"% c #2B83A8",
"& c #2C83A8",
"* c #2B86AB",
"= c #2E87AB",
"- c #2B87AC",
"; c #2C87AC",
": c #2D88AD",
"> c #308AAE",
", c #2F8AB0",
"< c #308BB0",
"1 c #328DB2",
"2 c #348DB2",
"3 c #338EB4",
"4 c #348FB4",
"5 c #3691B6",
"6 c #3793B8",
"7 c #3893B8",
"8 c #3B96BB",
/* pixels */
"854551::::::::=#=::#o@=::;:155:;:::::::::::;###;::;<551::::::::=",
"755551;:::::;*##=:=@o+=::;:155:*:::::;;==:;*###;::;<551;:::::;*#",
"555551:::::::=##==#++#=::;:155<::::::::##:=+###;::;<551:::::::=#",
"8545551:;:;:55>####++*:::*:15551::::155=#:=####;::*:5551:;:;:55>",
"8545555:*:::>>:###+++;::::145551;:::<1>$#=%#++#;:::15555:*:::>>=",
"5555555<;::=######+.+=::;1555551:::::=######++%;::155555<;::=###",
"555555541:::12>###  +=:;*15555551:;:131=@#+ o#;;*:15555541:::12>",
"555555551;*:571=##=@+*:1:15555555:*;166:+@$$o#:<<145555551;*:571",
"555555551:;:551:#=5>#=15555555555:;:155=+#12@#:45555555551:;:551",
"555555554111551::1521145555555555111455=#>55<<155555555554111551",
"555555555555554<35555555555555555555555>:55555555555555555555554",
"5554555555555555555555555555555555555555555555555555555555555555",
"5=>55555555555555555555551<45555555555555555555555::555555555555",
">+=5555555555555115555554:=1555555555555411555554>#=555555555555",
"#+;5555555555555=#255554:##15555555555551#:55555>#+;555555555555",
"O#;<4555555551:<#+===:<:#+#=1555555554:<;+#==::=#+#;<455555555<:",
"=:::1555555551::==$#=:::===:1555555551:::=$#$;:=#=:::1555555551:",
"4555555555555544444444544454555555555544444444444455555555555554",
"8115555555555555555565557515555555555555555566568511555555555555",
"8::4555555555555555211112:;15555555555555555111121::455555555555",
"8<-:455555555555555>#####=::1555555555555552=#####:::45555555555",
"8:%:<11555555551<11=+###+#**:1<155555551<11:#+##+@#=:<1155555555",
"8=#:;*;15444451:*;;*#######=:;*:4444444:*;:*########:;*;15444451",
"8=#;;;:::::::::::::*####==#*:;:::::::::::::;###@=;##;;;:::::::::",
"8;=11<:;;;;;;;;::::*###*:==>11:;;;;;;;;::::;###%;:*;11<:;;;;;;;;",
"8,:551:::::::::::::*##*::;:155:;:::::::::::;###::::<551:::::::::",
"8:*::::::::::::::::*#+*:::::::::::::::::::::###;:::::::::::::::;",
"81:**;;:::::::::::=##%=::::;;;::::::::::::;*##*;::::;;;:::::;;;:",
"851::::::::::::::=###;::::::::::::::::::::*@#=:::::::::::::::::<",
"8541141:;:::::::::###;::::::::::::::::::::*##=:::::::::::::14114",
"8545555:;:::::::;*#+#;::::::;;::::::::::;=%#+*::::::;;:::::15555",
"8545555:;:::::::*##++=::::::::::::::::::=###+#:::::::::::::15555",
"854551::::::::::*++.+=:::;:141:;::::::::;#++o#::::;:14<;::::1555",
"854551:::::::===%+o.+=:::;:4551:::::::==*#+Xo#::::*<554<:::;:11:",
"8545555:;::::*####+.+=:::;:15551:::::=####+oo#::::;<5555:;::::*#",
"5555555:*::;##@###+o#;::;:445551;:::=#####+o+=::;:145555:*::;##+",
"55555551:::=+#####.+=;::*1555551::::#+####++#;::*:4555551:::=+##",
"854555551::=#=;###+#::::;15555555:;:##:*##++=:::;:15555551::=#=;",
"555555551;*:>11=##>:-*:1145555555:*;:11:#+=>:-:11145555551;*:>11",
"555555551::1554:*:55::155555555551::4551;=261:<56555555551::1554",
"854555555555551:15555555555555555555555::45555555555555555555551",
"55555551:1<1554::1:=>1>==>555551:<11455<:1>==<1:=;2555551:1<1554",
"1555555<;;*:141::*#+#=#++:555551::;;<41:;;#++%*#+#155555<;;*:141",
"455555551::::::::=#+####*<5555554:;:::::::%+###+#:35555551::::::",
"455555551;;:11<:;:>=++&>135555555:*;:11:;;:>#O#=1155555551;;:11<",
"455555551::<554::15>##>5555555555<::155<;:55=#=56555555551::<554",
"455555555444551:<5542245555555555444555::15521255555555555444551",
"5555555555555541155555555555555555555551155555555555555555555554",
"5555555555555555555555555555555555555555555555555555555555555555",
"5555555555555555555555555555555555555555555555555555555555555555",
"5115555555555555555555555414555555555555555555555511555555555555",
"1:<5555555555554445555545<:15555555555542455555451:<555555555555",
":;<555555555561==156551::::455555555556>*:36555<::;<555555555555",
"*;:15555555511=##=>>>1:*;;:<4555555531>$+*:>>>1:*;;:1555555551<:",
";:;:15444451:#+####O+=:::::;<44444441*#####+.#:::::;:15444451:##",
"1:;::::::::::%+###+.+=:::::;:::::::::=####++.#::::::::::::::::%#",
"5<;:;;;;;;;;=#####o.+=:::::::;;;;;;;;*####+Xo#:::::::;;;;;;;;=#+",
"8<*::::::::=######+.+=::::::::::::::%#####+oo#::::::::::::::=###",
"5:*;;;:::::=#*=###++#;:::::;;;::::::##=###+++=::::::;;;:::::=#**",
"5::<<::::::=%;:%##++#;::::::<<::::::==:=##++#=::::::<<::::::=%;:",
"8::551::::::::::*+++#;:::;:155:;::::::::=#++#=::::;<551::::::::;",
"8:;<<:::::::::::*++#=:::::::::::::::::::=#++*::::::::<:::::::::;",
"81::::::::::::::*+o*:::::;=:::::::::::::=#++::::::=;::::::::::::",
"854551::::::::::*++#:::::*#155:;::::::::=#++=::::;#=551:::::::;:"
};
