/* XPM */
static char *a89aaba2f27540bda5a36f34504d9c8eI5CH9P0TyblutLSm[] = {
/* columns rows colors chars-per-pixel */
"64 64 223 2 ",
"   c #1E0A0C",
".  c #230E0D",
"X  c #2C1714",
"o  c #2D1917",
"O  c #2F1B19",
"+  c #381D16",
"@  c #321D1A",
"#  c #3D251E",
"$  c #2D2627",
"%  c #352725",
"&  c #392621",
"*  c #2F2D31",
"=  c #352F33",
"-  c #2D343C",
";  c #33363D",
":  c #35373C",
">  c #45251B",
",  c #4F3113",
"<  c #432922",
"1  c #412A27",
"2  c #4B2D23",
"3  c #5D2E22",
"4  c #4E3126",
"5  c #43332D",
"6  c #49322B",
"7  c #503227",
"8  c #553329",
"9  c #5E362B",
"0  c #443934",
"q  c #513930",
"w  c #64372A",
"e  c #623B2E",
"r  c #653C31",
"t  c #693D32",
"y  c #564818",
"u  c #6D500F",
"i  c #7F6013",
"p  c #4A4338",
"a  c #55443A",
"s  c #724C2B",
"d  c #715324",
"f  c #654035",
"g  c #6D4134",
"h  c #784B3B",
"j  c #676639",
"k  c #76603F",
"l  c #74723E",
"z  c #2D3A43",
"x  c #293945",
"c  c #343C45",
"v  c #3D3E45",
"b  c #2D424F",
"n  c #3F4046",
"m  c #32424C",
"M  c #3D4149",
"N  c #2E4C5C",
"B  c #314956",
"V  c #394A55",
"C  c #3D555F",
"Z  c #2E5669",
"A  c #315364",
"S  c #355B6D",
"D  c #355D72",
"F  c #2D637A",
"G  c #36677C",
"H  c #4A4747",
"J  c #43444B",
"K  c #594B46",
"L  c #59534A",
"P  c #4B4C53",
"I  c #444C58",
"U  c #4F535A",
"Y  c #5A5456",
"T  c #54545B",
"R  c #7C4F43",
"E  c #69504D",
"W  c #675849",
"Q  c #725B4C",
"!  c #726551",
"~  c #726C50",
"^  c #766A56",
"/  c #7B6C53",
"(  c #7A6E59",
")  c #485C6B",
"_  c #555A64",
"`  c #5C5C63",
"'  c #4C6C70",
"]  c #527B72",
"[  c #67666B",
"{  c #76756C",
"}  c #747479",
"|  c #86681A",
" . c #946F18",
".. c #98761C",
"X. c #A47D1A",
"o. c #8B5534",
"O. c #957420",
"+. c #8E5745",
"@. c #985B47",
"#. c #A05E49",
"$. c #8E6F4B",
"%. c #9D604C",
"&. c #85775B",
"*. c #A36849",
"=. c #AC7853",
"-. c #8E766E",
";. c #8A786B",
":. c #68A463",
">. c #A98527",
",. c #BD952A",
"<. c #C19B35",
"1. c #D1A737",
"2. c #F5BF3D",
"3. c #FFD138",
"4. c #8C9A43",
"5. c #B88A5C",
"6. c #978663",
"7. c #988965",
"8. c #90836B",
"9. c #9E9069",
"0. c #A6956B",
"q. c #A5986C",
"w. c #AB9A6E",
"e. c #B08B71",
"r. c #AE9D70",
"t. c #B09F71",
"y. c #B3A273",
"u. c #BCA173",
"i. c #C78D5E",
"p. c #CA956C",
"a. c #C6AF7F",
"s. c #D7A67A",
"d. c #E2AE79",
"f. c #B6C776",
"g. c #F9C848",
"h. c #FFD04C",
"j. c #2E6D88",
"k. c #366D84",
"l. c #32728D",
"z. c #2E7390",
"x. c #277C9E",
"c. c #297B9E",
"v. c #397996",
"b. c #337E9D",
"n. c #277DA1",
"m. c #297EA2",
"M. c #4B798C",
"N. c #687E8B",
"B. c #7D7E83",
"V. c #167BDD",
"C. c #0076FF",
"Z. c #35819E",
"A. c #2A81A5",
"S. c #2C86AB",
"D. c #2D88AD",
"F. c #3482A3",
"G. c #318AAE",
"H. c #398BAC",
"J. c #2F8AB0",
"K. c #338DB2",
"L. c #3590B5",
"P. c #3C90B2",
"I. c #3793B8",
"U. c #3A95BA",
"Y. c #56859B",
"T. c #7B828A",
"R. c #7B8895",
"E. c #538DA6",
"W. c #5D8DA3",
"Q. c #4890AE",
"!. c #608DA2",
"~. c #7791A7",
"^. c #2388E3",
"/. c #85858B",
"(. c #88888C",
"). c #8C8D92",
"_. c #8A939C",
"`. c #96969A",
"'. c #AE9C92",
"]. c #9BA98D",
"[. c #B1A496",
"{. c #8F96A0",
"}. c #9F9FA3",
"|. c #A49DA4",
" X c #87A4A1",
".X c #A6A7A9",
"XX c #B6AAA3",
"oX c #AEAEB1",
"OX c #B4B4B4",
"+X c #B6B5B9",
"@X c #BBBBBD",
"#X c #D5B18C",
"$X c #E7B787",
"%X c #F1BF8A",
"&X c #E8BE98",
"*X c #CEBCB0",
"=X c #F7CA8B",
"-X c #EAC197",
";X c #F3C494",
":X c #F6C99A",
">X c #FDC99D",
",X c #CEC5BF",
"<X c #F9CAA1",
"1X c #FED5A4",
"2X c #FFD6A9",
"3X c #EFCDB2",
"4X c #BDBDC4",
"5X c #AEC6D3",
"6X c #B9CDDB",
"7X c #C1C1C2",
"8X c #C6C6CC",
"9X c #CBCBCC",
"0X c #D3D1CF",
"qX c #CDCED3",
"wX c #D7D6D9",
"eX c #E1DADA",
"rX c #C9D5E8",
"tX c #DBDCE3",
"yX c #E4E4EB",
"uX c #E7E7EA",
"iX c #F8ECF8",
"pX c #F4F4F3",
"aX c #FEFEFE",
/* pixels */
"U.L.K.L.L.K.D.D.D.D.D.D.D.D.S.A.S.D.D.A.c.A.S.D.D.S.D.K.L.L.D.S.D.D.D.D.D.D.D.D.D.D.D.S.A.A.A.S.D.D.S.K.L.L.K.D.D.D.D.D.D.D.D.S.",
"I.L.L.L.L.K.S.D.D.D.D.D.S.S.A.A.S.D.S.A.c.m.S.D.D.S.D.K.L.L.D.S.D.D.D.D.D.S.S.S.S.D.S.S.A.A.A.S.D.D.S.K.L.L.K.S.D.D.D.D.D.S.S.A.",
"L.L.L.L.L.K.D.D.D.D.D.D.D.S.A.A.S.S.A.m.m.A.S.D.D.S.D.K.L.L.K.D.D.D.D.D.D.D.D.A.A.D.S.m.A.A.A.S.D.D.S.K.L.L.K.D.D.D.D.D.D.D.S.A.",
"U.L.K.L.L.L.K.D.S.D.S.D.L.L.G.A.A.A.A.m.m.S.D.D.D.S.D.K.L.L.L.K.D.D.D.D.K.L.L.S.A.D.S.A.A.A.A.S.D.D.S.D.L.L.L.K.D.S.D.S.D.L.L.G.",
"U.L.K.L.L.L.L.D.S.D.D.D.G.G.D.A.A.A.m.m.m.S.D.D.D.D.K.K.L.L.L.K.S.D.D.D.K.K.G.A.A.S.A.A.m.m.A.S.D.D.D.K.L.L.L.L.D.S.D.D.D.G.G.S.",
"L.L.L.L.L.L.L.K.S.D.D.S.A.A.A.A.A.A.m.x.m.S.Q.tXtXtXtXtXtXyX8XT.D.D.D.D.D.S.A.A.A.A.A.A.m.m.A.S.D.D.K.L.L.L.L.L.K.S.D.D.S.A.A.A.",
"L.L.L.L.L.L.L.K.K.D.D.D.K.K.G.A.A.A.x.x.m.Q.qXtXtXtXtXtXyX8X/.R.K.D.S.D.K.K.K.S.A.A.m.x.c.A.S.S.S.D.K.L.L.L.L.L.K.K.D.D.D.K.K.G.",
"L.L.L.L.L.L.L.L.K.S.S.D.L.I.K.S.A.A.S.A.Q.6XtXtXtXtXtXyX4XB.).qX6X5XS.S.K.I.I.D.m.A.A.A.c.A.D.K.K.K.K.L.L.L.L.L.L.K.S.S.D.L.I.K.",
"L.L.L.L.L.L.L.L.K.D.S.D.L.L.K.D.A.S.L.Q.5XyXtXtXtXtXtX9X+X+X8XyXtXtX5XG.K.L.L.S.m.A.K.K.A.A.D.K.L.L.L.L.L.L.L.L.L.K.D.S.D.L.L.K.",
"L.L.L.L.L.L.L.L.K.K.K.K.L.L.K.D.D.K.v.R.9X9XqXyXtXtXtX9XwXyXyXtXtX8X+X~.Q.L.L.S.A.G.L.L.K.K.K.L.L.L.L.L.L.L.L.L.L.K.K.K.K.L.L.K.",
"L.L.L.L.L.L.L.L.L.L.L.L.L.L.K.K.K.L.) } .XOX+XqXqXtXtXtXtXtXtXtXtX7X`.).E.L.L.G.D.L.L.L.L.L.L.L.L.L.L.L.L.L.L.L.L.L.L.L.L.L.L.K.",
"L.L.L.L.L.L.L.L.L.L.L.L.L.L.L.L.K.L.M.I } 7X+XOXOXqXtXtXtXtXtXtXtXyX9X`.E.L.L.L.L.L.L.L.L.L.L.L.L.L.L.L.L.L.L.L.L.L.L.L.L.L.L.L.",
"L.S.G.L.L.L.L.L.L.L.L.L.L.L.L.L.L.L.L.k.} 7X+X+XOX.X0XeXwXwXwXtXtXtXyX}.E.L.L.L.L.L.L.L.L.L.L.L.L.L.D.D.L.L.L.L.L.L.L.L.L.L.L.L.",
"G.m.S.L.L.L.L.L.L.L.L.L.L.L.L.L.K.K.K.D T.7X+XOX)./.#X;X;X%X<XtXwXwXyX}.E.L.L.L.K.K.K.L.L.L.L.L.K.G.A.S.L.L.L.L.L.L.L.L.L.L.L.L.",
"A.m.S.L.L.L.L.L.L.L.L.L.L.L.L.L.S.A.b Y _.'.&X).(.&X;X:X;X;X;X-X(.T wX.XE.L.L.L.K.A.D.L.L.L.L.L.G.A.m.S.L.L.L.L.L.L.L.L.L.L.L.L.",
"n.A.S.K.K.L.L.L.L.L.L.L.L.K.D.K.A.m.x Y {.[.;X/.(.i.o.w 5.1Xp.e ).T [ ` M.K.D.K.S.m.A.S.S.D.D.S.A.m.A.S.K.K.L.L.L.L.L.L.L.L.K.D.",
"S.D.D.D.K.L.L.L.L.L.L.L.L.K.D.D.S.S.x [ } K XX`.R.s.*XE *.1X&X|.` T v.b.H.K.D.D.D.S.A.A.A.S.D.S.A.S.D.D.D.K.L.L.L.L.L.L.L.L.K.D.",
"K.L.L.L.L.L.L.L.L.L.L.L.L.L.K.K.K.K.z 0 5 O H K #X;XiX:.4.>X3XrXP M.L.L.L.L.K.K.K.K.K.K.K.K.K.K.K.K.L.L.L.L.L.L.L.L.L.L.L.L.L.K.",
"U.K.K.L.L.L.L.L.L.L.L.L.L.L.L.L.L.L.k.A - o . X d.;X3Xf.f.%X<X*XP L.L.L.L.L.L.L.L.L.L.L.I.I.L.I.U.L.K.K.L.L.L.L.L.L.L.L.L.L.L.L.",
"U.D.D.K.L.L.L.L.L.L.L.L.L.L.L.L.L.L.L.K.v.- @ > o.s.%X>X<X:X;X}.' K.L.L.L.L.L.L.L.L.L.L.K.K.K.K.K.K.D.D.K.L.L.L.L.L.L.L.L.L.L.L.",
"U.K.S.D.K.L.L.L.L.L.L.L.L.L.L.L.L.L.L.G.A.c.v 3 > *.s.$Xs.'. XL.L.L.L.L.L.L.L.L.L.L.L.K.S.A.A.A.A.A.D.D.D.K.L.L.L.L.L.L.L.L.L.L.",
"U.D.A.D.K.K.K.L.L.L.L.L.L.L.L.K.K.K.K.S.m.A.l.& & =.i.i.o.[ H.F.L.L.L.L.L.L.L.K.K.K.K.D.A.m.A.A.m.A.A.S.D.K.K.K.L.L.L.L.L.L.L.L.",
"U.S.A.D.S.S.S.K.L.K.K.K.K.L.K.D.S.S.S.S.m.k.W y.t.q.$X>Xs.5.6.H G.K.K.K.K.K.K.D.S.S.D.S.A.A.A.A.A.A.A.A.D.S.S.S.K.L.K.K.K.K.L.K.",
"U.S.A.S.S.S.D.D.D.D.D.D.D.D.D.D.D.D.D.S.G W t.w.w.w.q.#X>Xd.5.7.H D.D.D.D.D.D.D.D.D.D.S.A.A.A.A.S.S.A.A.S.S.S.D.D.D.D.D.D.D.D.D.",
"U.S.S.K.K.K.D.S.S.S.S.S.S.S.S.D.D.D.D.k.L w.r.w.y.w.w.y.9.^ &.t.7.P b.S.S.S.S.D.D.D.D.S.A.A.A.A.S.D.S.S.K.K.K.D.S.S.S.S.S.S.S.S.",
"U.J.D.L.L.K.D.D.D.D.D.D.D.D.D.D.D.D.M.{ 0.t.w.0.W 0.r.w.9.6.9.r.w.a b.D.D.D.D.D.D.D.D.S.A.A.A.D.D.D.D.K.L.L.K.D.D.D.D.D.D.D.D.D.",
"U.D.S.D.D.D.D.D.D.D.D.D.D.D.D.D.) C L ( 9.y.r.r.a &.w.r.w.r.w.w.0.a b.D.D.D.D.D.D.D.D.D.A.A.A.S.D.D.D.D.D.D.D.D.D.D.D.D.D.D.D.S.",
"U.K.D.S.S.S.S.D.D.D.D.D.D.D.D.D.p / 6.6.&.7.t./ 5 5 &.r.y.t.t.y.y.5 c.D.D.D.D.D.D.D.S.S.A.A.S.S.D.D.D.D.S.S.S.D.D.D.D.D.S.S.S.D.",
"U.L.K.D.D.D.D.D.D.D.D.D.D.D.D.D.H / 0.y.9.&./ & o . a / 6.7.7.6.! O A.D.D.D.D.D.D.D.S.A.A.S.D.D.D.D.D.D.D.D.D.D.D.D.D.D.D.D.D.K.",
"U.L.K.K.K.K.K.D.S.D.D.D.D.D.D.D.H q 6.a.u.&.m o O o 5 p W ^ ! W   O F A.D.D.D.D.D.D.S.A.A.S.D.D.D.D.D.D.D.D.D.D.D.D.D.K.K.K.K.K.",
"U.L.K.L.L.L.L.D.S.D.D.D.D.D.D.D.H =.$X1Xp.Y D.$ @ @ 6 Q ! ^ ;.( @ @ @ j.D.D.D.D.S.S.A.A.m.S.D.D.D.D.D.D.S.S.D.D.D.D.D.K.L.L.L.L.",
"U.L.K.L.L.L.L.D.S.D.D.D.D.D.D.D.h s.:X:Xp.Q D.S.6 2 e t 3 ;.0XXXw @ O j.D.D.D.D.S.A.A.A.m.A.D.D.D.D.D.D.D.D.D.D.D.D.D.K.L.L.L.L.",
"U.L.K.L.L.K.D.D.D.D.D.D.D.D.D.D.h s.1Xs.*.Q D.S.6 2 9 t 3 -.XXw r @ O l.D.D.D.D.S.A.m.m.c.A.D.D.D.D.S.D.K.K.K.S.D.D.D.D.K.L.L.L.",
"U.L.L.L.L.K.D.D.D.D.D.D.D.S.S.S.h s.1Xi.E Z.D.D.d | s w 3 -.0X'.w q @ $ j.D.S.S.S.A.m.c.c.A.D.D.D.D.S.K.L.L.K.K.D.D.D.S.D.K.K.D.",
"U.L.K.L.L.L.L.D.S.D.D.D.D.S.A.j u s.1X=.[ S.D.l 1...k Q Q ( 8.;.Q ! # o * F A.A.A.A.m.c.c.A.D.D.D.D.S.K.L.L.L.L.D.S.D.D.D.D.S.A.",
"L.L.L.L.L.L.L.D.S.D.D.S.A.A.l 1.1.d.:Xs.#X].~ 1.g.X.$.( ( ^ ! ! ( ( & o @ N A.A.A.A.m.c.m.S.D.D.S.D.K.K.L.L.L.L.D.S.D.D.S.A.A.m.",
"L.L.L.L.L.L.L.K.D.D.D.S.m.A.~ <.g.=X&X;X2Xs.i 3.3.d 0 ! &.( ( ( ( ( & o @ N A.A.A.A.m.m.A.S.D.D.S.D.K.L.L.L.L.L.K.D.D.D.S.m.A.A.",
"U.L.K.L.L.L.L.L.K.D.D.S.A.S.S.i ,.=X>X>X$X$.y ].]._ I L K K L Q W Q & o O N D.S.A.A.m.m.S.D.D.D.S.D.K.L.L.L.L.L.L.K.D.D.S.A.S.S.",
"L.L.L.L.L.L.L.L.K.S.S.D.G.K.H.~ j 5.#X$X*., p C.C.~.|.[ v J J 5 0 0 @ - m k.K.D.A.m.S.G.D.S.D.K.K.K.K.L.L.L.L.L.L.K.S.S.D.G.K.K.",
"L.L.L.L.L.L.L.L.K.D.D.K.L.L.K.D.S.` R R s u j ^.V.R././.).`.B.c v M % j.G.L.L.K.S.S.K.I.K.D.K.L.I.L.L.L.L.L.L.L.L.K.D.D.K.L.L.K.",
"U.L.K.L.L.L.L.L.L.L.L.L.L.L.K.D.K.L.L.L.M.>.h.2. .L U P } ).).).).).J : : G K.G.S.K.L.L.L.L.L.L.L.L.L.L.L.L.L.L.L.L.L.L.L.L.L.K.",
"L.L.L.L.L.L.L.K.D.K.K.K.L.L.K.D.D.K.D.S.] >.h.g. .Y T T T T T ` ).)./..X@XB.I U ) K.G.S.S.K.K.D.S.S.K.L.L.L.L.L.K.D.K.K.K.L.L.K.",
"K.L.L.L.L.L.L.K.S.S.S.D.K.K.K.D.D.S.A.m.] >.g.O. .0 c : P T T T ` ` T .X8X+X.XoX`.I I V b.A.S.A.m.A.K.L.L.L.L.L.K.S.S.S.D.K.K.K.",
"K.L.L.L.L.L.L.L.K.D.D.D.D.D.D.D.D.S.A.m.] ..>.| s f & O = M c M T T T [ [ /.OX8X@X.X8X0XR.N.N.Y.A.D.L.L.L.L.L.L.L.K.D.D.D.D.D.D.",
"K.L.L.L.L.L.L.L.K.S.S.D.K.K.K.D.S.D.G.S.G 7 s s r 2 S z & 5 1 5 J n v P P ` } } B.oXaXaXyX9X0X.XN.Y.L.L.L.L.L.L.L.K.S.S.D.K.K.K.",
"K.L.L.L.L.L.L.L.K.D.D.K.L.L.K.D.D.K.L.j.x 1 t r g @ H.A # 7 2 2 $ D D M J v J P T } .X}.@XpXaXpX7XOXY.!.L.L.L.L.L.K.D.D.K.L.L.K.",
"K.L.L.L.L.L.L.L.L.K.K.K.L.L.K.D.G.L.L.N & e t t 8 m F.B # 4 4 2 o K.K.G A A V P J J J J ` }.+X7XyXaXoX/.W.L.L.L.L.L.K.K.K.L.L.K.",
"L.L.L.L.L.L.L.L.L.L.L.L.L.L.K.K.K.L.L.A < g t r o G.L.b # 4 2 1 c K.L.L.L.L.v.B B B P P J J v P ).yXaXoX).L.L.L.L.L.L.L.L.L.L.K.",
"L.L.L.L.L.L.L.L.L.L.L.L.L.L.L.L.L.L.L.A < g t e @ F.L.B < 7 < * L.L.L.L.L.L.L.L.L.L.m c z J T P U /.wXyX_.L.L.L.L.L.L.L.L.L.L.L.",
"L.L.L.L.L.L.L.L.L.L.L.L.L.L.L.L.L.L.L.A < g e 2 % F.K.V 4 4 < * L.L.L.L.L.L.L.L.L.L.L.L.L.S ; ; ; - ; T.P.L.L.L.L.L.L.L.L.L.L.L.",
"L.K.K.L.L.L.L.L.L.L.L.L.L.L.L.L.L.L.L.A < g 9 $ H.K.z < 4 4 < $ L.L.L.L.L.L.L.L.L.L.L.L.L.K.K.K.K.K.G.K.L.L.L.L.L.L.L.L.L.L.L.L.",
"K.D.K.L.L.L.L.L.L.L.L.L.L.L.L.K.K.K.A % 8 g 9 $ K.K.- < 7 < ; F.L.L.L.L.L.L.L.K.K.K.L.L.L.L.L.K.L.K.D.K.L.L.L.L.L.L.L.L.L.L.L.L.",
"D.S.K.L.L.L.L.L.L.L.L.L.L.I.K.S.S.K.m # 8 g e $ S.D.- < 8 < z L.L.L.L.L.L.L.I.G.S.D.K.I.L.L.L.K.D.D.S.K.L.L.L.L.L.L.L.L.L.L.L.L.",
"S.S.D.K.L.L.L.L.L.L.L.L.K.K.S.A.A.S.b < t t 7 O A.S.- < 7 < z L.L.L.L.L.K.K.G.A.m.S.D.G.G.G.K.D.S.S.S.D.K.L.L.L.L.L.L.L.L.K.K.D.",
"S.D.S.D.K.L.K.K.K.K.L.K.D.A.m.A.A.A.x + t 9 % Z S.D.- < 4 + z K.K.K.K.K.K.S.A.A.A.A.A.m.x.A.D.D.D.D.D.S.D.K.L.K.K.K.K.L.K.D.A.A.",
"K.D.S.D.D.D.D.D.D.D.D.D.D.A.m.A.A.k.U ;.$.2 * D.D.D.- # a E J F D.D.D.D.D.S.A.A.A.A.m.m.x.A.D.D.D.D.D.D.D.D.D.D.D.D.D.D.D.D.A.A.",
"L.K.S.D.S.S.S.S.S.S.S.S.S.A.A.A.l.q e.,Xe.3 = D.D.D.- > E -.! @ j.S.S.S.S.S.A.A.A.A.m.c.c.A.D.D.D.D.D.D.D.S.S.S.S.S.S.S.S.S.A.m.",
"U.K.S.D.D.D.D.D.D.D.D.S.A.A.A.l.f @.#.@.@.@.K D.D.D.- 8 t w t t @ z.S.D.A.A.A.A.A.A.m.c.c.A.D.D.D.D.D.D.D.D.D.D.D.D.D.D.S.A.A.A.",
"L.D.S.S.S.S.D.D.D.D.D.S.A.S.A.r @.%.%.%.*.+.K D.D.D.- 8 g t t t r @ c.D.A.A.S.A.A.A.m.m.m.S.D.D.D.D.D.D.S.S.S.D.D.D.D.D.S.A.S.S.",
"L.D.D.K.K.D.D.D.D.D.D.S.A.S.D.A.A.A.m.m.A.S.D.D.D.D.D.J.K.K.D.D.D.D.D.D.S.S.D.S.A.A.m.m.A.S.D.D.D.D.D.D.K.K.D.D.D.D.D.D.S.A.S.D.",
"U.D.D.L.L.K.D.D.D.D.D.D.D.D.D.D.S.m.m.m.A.S.D.D.D.S.D.K.L.L.D.S.D.D.D.D.D.D.D.D.S.A.m.m.A.S.D.D.D.D.S.K.L.L.K.D.D.D.D.D.D.D.D.S.",
"U.D.S.K.K.D.D.D.D.D.D.D.D.D.D.D.S.m.m.A.S.D.D.D.D.D.D.D.D.D.D.D.D.D.D.D.D.D.D.D.S.A.m.m.S.D.D.D.D.D.D.D.D.K.D.D.D.D.D.D.D.D.D.S.",
"U.K.D.D.D.D.D.D.D.D.D.D.D.D.D.D.S.m.m.S.D.D.D.D.D.S.S.D.D.D.D.D.D.D.D.D.D.D.D.D.S.A.m.m.D.D.D.D.D.D.S.S.D.D.D.D.D.D.D.D.D.D.D.D.",
"U.L.K.L.L.K.D.D.D.D.D.D.D.D.D.D.S.m.m.A.D.D.D.D.D.S.A.K.L.L.D.S.D.D.D.D.D.D.D.D.S.A.m.m.S.D.D.D.D.S.A.S.L.L.K.D.D.D.D.D.D.D.S.D."
};
