/* XPM */
static char *_eb07a1719ea4216d8aa81ecf1190eb1cl1e92UWGD28xm6P[] = {
/* columns rows colors chars-per-pixel */
"64 64 199 2 ",
"   c #161C05",
".  c #191E07",
"X  c #15160A",
"o  c #17180B",
"O  c #1C1F0A",
"+  c #1F1F10",
"@  c #211F0E",
"#  c #231F13",
"$  c #1E210C",
"%  c #1E2514",
"&  c #1D2B1A",
"*  c #21220D",
"=  c #28270E",
"-  c #252A09",
";  c #292E09",
":  c #2B3207",
">  c #2D3408",
",  c #343D07",
"<  c #303608",
"1  c #323A08",
"2  c #242213",
"3  c #292315",
"4  c #2B2A14",
"5  c #26221A",
"6  c #2B251B",
"7  c #27281F",
"8  c #2E291B",
"9  c #332D1E",
"0  c #353418",
"q  c #37321D",
"w  c #1F2F23",
"e  c #1F332A",
"r  c #1F3A35",
"t  c #1F3C39",
"y  c #2E2621",
"u  c #242D25",
"i  c #2B2A22",
"p  c #292F29",
"a  c #342C22",
"s  c #362B25",
"d  c #392F25",
"f  c #22352C",
"g  c #2F372F",
"h  c #373022",
"j  c #3C3325",
"k  c #3E3528",
"l  c #3B372C",
"z  c #223A34",
"x  c #283937",
"c  c #213E39",
"v  c #403625",
"b  c #433925",
"n  c #413629",
"m  c #453A2A",
"M  c #4B3E2C",
"N  c #4F3E31",
"B  c #503F30",
"V  c #364206",
"C  c #394506",
"Z  c #3D4B06",
"A  c #344108",
"S  c #3A440A",
"D  c #3A4B0B",
"F  c #3F5005",
"G  c #414D06",
"H  c #42490F",
"J  c #435305",
"K  c #4A5507",
"L  c #465805",
"P  c #4B5C04",
"I  c #4E5B09",
"U  c #454619",
"Y  c #59591A",
"T  c #4F6103",
"R  c #536503",
"E  c #566902",
"W  c #5A6D01",
"Q  c #5E7201",
"!  c #5B730A",
"~  c #597717",
"^  c #617501",
"/  c #657A00",
"(  c #6A7D01",
")  c #6E780E",
"_  c #707D0A",
"`  c #646717",
"'  c #676C13",
"]  c #696F13",
"[  c #627E18",
"{  c #444020",
"}  c #4F412E",
"|  c #53442E",
" . c #554A28",
".. c #5A4F29",
"X. c #5B5028",
"o. c #4C4B3E",
"O. c #554531",
"+. c #584731",
"@. c #534936",
"#. c #5A4932",
"$. c #4D7B3F",
"%. c #547E35",
"&. c #2A3E40",
"*. c #244646",
"=. c #2C4246",
"-. c #244748",
";. c #254A4D",
":. c #394847",
">. c #254C53",
",. c #24545D",
"<. c #28555F",
"1. c #34555C",
"2. c #3A705A",
"3. c #265A66",
"4. c #285A67",
"5. c #375A63",
"6. c #25606E",
"7. c #266476",
"8. c #2C6474",
"9. c #276679",
"0. c #2B6A7E",
"q. c #316272",
"w. c #31697C",
"e. c #387B75",
"r. c #377D7E",
"t. c #527B42",
"y. c #487E5A",
"u. c #4A7165",
"i. c #436E7A",
"p. c #41777F",
"a. c #6E8102",
"s. c #6F850D",
"d. c #738502",
"f. c #768902",
"g. c #7A8C02",
"h. c #728408",
"j. c #74890A",
"k. c #7D9101",
"l. c #6A8312",
"z. c #6F8915",
"x. c #6A861A",
"c. c #718914",
"v. c #5E8026",
"b. c #5C883D",
"n. c #658625",
"m. c #698922",
"M. c #628933",
"N. c #598744",
"B. c #5C8B4C",
"V. c #4B845A",
"C. c #588B53",
"Z. c #528A5D",
"A. c #458163",
"S. c #4A8767",
"D. c #508D6D",
"F. c #498B73",
"G. c #42877A",
"H. c #43897A",
"J. c #809202",
"K. c #2A6D83",
"L. c #2C6E88",
"P. c #326F86",
"I. c #2B7188",
"U. c #2B738C",
"Y. c #35788C",
"T. c #277796",
"R. c #2C7692",
"E. c #2C7A96",
"W. c #2A7C9D",
"Q. c #337A94",
"!. c #3C7E95",
"~. c #337F9B",
"^. c #297EA1",
"/. c #3C8584",
"(. c #3A8688",
"). c #3F8989",
"_. c #2C809F",
"`. c #378697",
"'. c #3C8A94",
"]. c #33839D",
"[. c #2A81A5",
"{. c #2C85AA",
"}. c #2C87AC",
"|. c #2D88AD",
" X c #3384A4",
".X c #3585A5",
"XX c #348BA5",
"oX c #3A8EA6",
"OX c #338AAC",
"+X c #3990AB",
"@X c #2F8AB0",
"#X c #308BB0",
"$X c #328DB2",
"%X c #338DB2",
"&X c #388EB0",
"*X c #3691B6",
"=X c #3692B7",
"-X c #3A95BA",
";X c #448C84",
/* pixels */
"-X*X%X*X*X%X|.|.|.|.|.|.|.|.{.[.{.|.|.[.W.[.{.|.|.}.|.%X*X*X|.}.|.|.|.|.|.|.|.|.|.|.|.}.[.[.[.}.|.|.}.#X*X*X%X|.|.|.|.|.|.|.|.{.",
"*X*X*X*X*X%X}.|.|.|.|.|.}.{.[.[.{.|.{.[.W.^.{.|.|.}.|.%X*X*X|.{.|.|.|.|.|.}.}.{.{.|.}.{.[.[.[.}.|.|.}.#X*X*X%X}.|.|.|.|.|.}.{.[.",
"*X*X*X*X*X%X|.|.|.|.|.|.|.{.[.[.{.{.[.^.^.[.{.|.|.}.|.%X*X*X#X|.|.|.|.|.|.|.|.[.[.|.{.^.[.[.[.}.|.|.}.#X*X*X%X|.|.|.|.|.|.|.{.[.",
"-X*X%X*X*X*XoX).].H.b.].Z.j.j.`.N.d.e.^.E.$.j.H.|.S.j.j.;X+X*X'.|.XXH.'.OX*X;Xh.j.H.S.g.2.^.[.A.f.j.G.|.oXB.Z.OX;X].|.}.|.*X*XOX",
"-X*X%X'.).'.S.c.M.Z.z.C./.l.f.n.l./ ~ Y.A.Q ( M.).(.v.f.z.B.*XM.(.XXm.m.F.'./.%.f.m.x.W D e.r.~ ( f.m.'.D.j.C.B.j.V.`.(.(.OXOX{.",
"*X*X%XG.! ! ! / f.j.j.g.[ ^ f.d.^ W ( j.h.^ ^ d.j.[ ! d.f.f.D.c.j./.$.d.h.s.! ! d.g.^ P P ! ! W Q d.f.j.j.f.j.f.( Q ! Q y._.[.[.",
"*XoXA.S.x./ W W / a.d.f.g.f.f.d.Q ^ ( f.d./ d.g.f.g.f.f.f.f.f.f.f./ E ^ d.f.g.f.d.f.d.g.( T W W ^ d.f.f.f.d.a./ Q W / ( V.A.'.OX",
"*X%./ d.g./ ^ ( / ( d.f.d.f.f.d.( d.g.g.f.g.f.f.g.d.f.f.d.d.g.g.g./ ( d.g.g.f.f.f.d.g.( J P ^ a.( d.g.f.d.f.a./ a.^ / f.d.( ~ oX",
"*Xy._ k.f.( d.g.g.g.g.a.^ d.f.g.J.a.^ d.g.g.f.g.( ^ d.g.d.^ ( d.d.g.g.g.f.d.Q a.g.f.k./ R ( d.g.g.g.d.d.( g.f.g.g.d.( f.k.h.t.OX",
"*Xp._ h._ g.g.( d.g.g.d.f.f.g.f.a.a.W a.k.a.k.f.^ ( f.f.g.( ^ ^ / g.g.f.k./ / g.g.g.g.k.( ( g.g.a.( J.^ d.g.g.d.( g.g.d._ d.u.OX",
"*X@.] ` d.g.^ / d.f.d.g./ d.J.E J Q ^ ( P L W R / a.d.g.( k./ W d.f./ g.W E d.( k.R , d.^ a.f.f.R f.^ ^ g.d.d.f./ Q f.g.` ] ..OX",
"5.| | ' ) I Z ^ J.( Q g.L d.K , J W T P V L R F L J / ^ J ( / W g.Q P g.G J T W ^ ; X < > G L P Q ^ > E g.Q / k.( F L ' )  .+.:.",
"j m O... .R P E ^ L W ( L P C G Q Q E Z J W T Z Z Z L J > J ^ Q / W E E Z Z Z J J > > A : : 1 R G , V J ( W P W ^ P R  .X.O.M j ",
"j j m B | Y Q P J R Q Q Q L J Q Q ^ L J J E Q J L W P Z Z P Q ^ E V / W L J W R C , Z L , Z J ^ J , J W Q ^ E J J Q Y | N M j j ",
"k j j { ! Q T J J R W Q Q E , P J Q Q Z P / W W Q Q E V Z , E W < C ( W W Q Q Q G > J Z Z J C Z T J W Q Q W E J J P W ^ U j j k ",
"a k j U J E R / T J L P C - > < > G Q < T E : J ( P > > - X V 1 V P W : G ( P , V > 1 o V Z > > - Z ^ W J L L L / E E J H k k a ",
"i a a s S ^ R J / Z , , ; - C Z G > G 1 V - o > R J > < - $ o $ J : : o > L P O > 1 * X 1 > Z 1 O ; G W ; V C Q P P / G a d a 6 ",
"Y.6 j h E W 8 4 R C ; > > Z J J J Z > 1 : : C , 1 , > 1 > $ O O - o : C , > V 1 < > 1 - o S Z , Z , V V > : , T 1 5 T ^ q d 8 q.",
"-Xp 6 8 K 0 y j 0 C V $ - J C , J C * : * C Z C C > 1 * - $ O O O $ V J V C > 1 - $ < ; X C - J F Z J ; $ , Z < k s 6 I 9 6 y  X",
"-XE.6 6 5 y k j S C Z : ; V O > , J $ O $ - > V Z > > $ O O O O O O - > V Z < > > $ * * $ O $ J - A Z > - J V S q k a 5 2 6 w.%X",
"-X Xx O # 6 a 6 > V > - - O O $ $ : $ O O O $ > < $ * $ O O O O O O O O > > - * $ * O O O O $ : X : < - $ : 1 , $ 9 6 # O u Q.*X",
"-X|.E.& 2 6 5 5 5 4 6 # O O O O O o O O O O O O $ O O O O O O O O O O O o * O O O O . O O O O o $ O = O 2 9 0 3 # 2 6 3 8 1.&X*X",
"-X{.^.3.6 6 8 m M d y 6 2 O O O O O O O O O O O O O 2 2 O O O O O O O * 2 O O 2 6 $ O 2 O 2 2 $ 3 8 # 2 k n k d 6 6 a M O.@.i.OX",
"-X{.[.W.>.y m O.+.O.h 6 * O O O O O O O O O O O O O * # * 3 2 O . O * 3 3 2 O 2 6 3 8 8 3 # 2 3 8 8 6 3 n k n 9 2 a M +.| | O.[.",
"-X}.{.%X.X1.+.| | M 4 O O O @ 2 2 2 * $ O O O O O O O * 6 6 6 3 2 O $ 2 3 2 O O 2 9 a 9 9 6 3 2 6 6 8 @ 6 j 9 O * h | | | | O.;.",
"-X@X|.*X*XY.M O.M h $ . O O 6 3 2 2 2 2 * O O O O O O 8 9 6 6 6 6 3 . O * * O O 9 k 9 9 9 9 8 O 3 3 3 O $ 2 2   * 6 v | | +.n O ",
"-X|.[.q.=.&.a m a 2 O O O O 2 3 6 3 3 2 2 O O O O O * 3 9 9 8 8 6 3 . O O O O * 9 h k h 9 9 9 2 2 2 @ O O O $ O O 2 s n | O.8 O ",
"-XOXq.j j a 6 5 5 O O O O O O $ 2 2 2 $ O O O O O O 2 2 2 3 6 6 2 O O O O O O 2 8 6 9 9 9 8 2 2 2 O O O 2 6 6 2 o . 3 k n s * O ",
"-X.Xk k n 8 2 j a O   O O O O O O O O O $ $ $ O O O 2 3 2 2 3 O O 2 3 2 $ O O 2 8 6 6 8 3 . 3 8 6 * $ $ y 6 6 a q $   8 s 2 O O ",
"-X].h n 8 O v O.| j 2 O O O O O O O O 2 2 2 2 * O O * 2 2 3 2 O 2 8 8 8 3 O O 2 6 6 6 6 $ 2 9 9 9 9 3 O 2 6 m | +.M * O 6 2 O O ",
"-X~.6 9 * 9 O.| | O.9 O O O O O O O O 3 2 2 3 2 O O O 2 2 3 $ . 8 6 6 6 6 O O 2 6 8 8 2 O 9 9 9 9 9 3 O O 8 O.| | +.9 O 6 $ O 4.",
"-X].6 5 2 j m | | n 6 6 * O O O O O O @ 3 2 2 O O O O O 2 2 O O 3 6 6 6 2 O $ 3 3 6 6 * . 6 9 9 9 9 $ $ 6 6 j | | M a O $ O O ~.",
"-X*X8.O 6 j j k h 6 6 y 2 O O O O O O O O O O O O O O O O O O O 2 3 2 * O O O O * 3 2 O . 6 6 6 3 2 O $ y 6 6 a n a 6 6 O O 8.%X",
"-X*XQ.% 2 s k j 2 O 6 6 $ O O O O O O O O O O O O O O O O O O O O 2 2 O O O O O O * * O O @ 6 6 3 $ O $ 6 6 O O h a 5 6 $ $ I.|.",
"-X*X`.=.5 6 a 8 2 3 d 3 O O O O O O O O O O O O O O O O O O O O O O * O O O O O O O O O O O * 2 * O O O O 6 6 8 v m d i -.K.[.[.",
"*X!.o.M M a 5 6 s n n j 2 O O O O O O O O O O O O O O O O O O O O O O O O O O O O O O O O O O O O O O $ 6 a n } O.O.O.l U.[.[.^.",
"*X@.| | O.} a 6 a k k m 3 O O O O O O O O O O O O O O O O O O O O O O O O O O O O O O O O O O O O O O $ 6 a } | | | O.a *.E.[.[.",
"Y.| | | | | k a 6 a j a $ O O O O O O O O O O O O O O O O O O O O O O O O O O O O O O O O O O O O O O O O 8 } | | | k 6 f E.{.}.",
"j M | | | v 3 2 5 6 6 O O O O O O O O O O O O O O O O O O O O O O O O O O O O O O O O O O O O O O O O O O $ 8 v M m 6 2 z [.%X%X",
"j j M | m 5   * 6 2 O O O O O O O O O O O O O O O O O O O O O O O O O O O O O O O O O O O O O O O O O O O O O 6 j n 2 . f .X*X%X",
"k j j m 9 O . + 6 2 O O O O O O O O O O O O O O O O O O O O O O O O O O O O O O O O O O O O O O O O O O O O 2 5 8 a 2 O *.OX*X%X",
"d k k a 2   O 9 s 6 O O O O O O O O O O O O O O O O O O O O O O O O O O O O O O O O O O O O O O O O O O O O 2 a a 6 O z R.*X*X%X",
"6 a a j $   j O.O.b 2 O O O O O O O O O O O O O O O O O O O O O O O O O O O O O O O O O O O O O O O O O O 2 k | | m 3 9.|.%X%X%X",
"q.6 j s 2 9 O.O.O.O.9 O O O O O O O O O O O O O O O O O O O O O O O O O O O O O O O O O O O O O O O O O O 8 O.O.| +.v L.|.|.|.|.",
"%X6 9 6 6 j M | | m 8 6 $ O O O O O O O O O O O O O O O O O O O O O O O O O O O O O O O O O O O O O O $ 6 6 n | O.M k =.W.%X%X#X",
"%XP.6 5 6 j j n k 8 6 y 2 O O O O O O O O O O O O O O O O O O O O O O O O O O O O O O O O O O O O O O $ y 6 6 j n j k i E.*X*X%X",
"%X.Xi * 5 j k j 2 O 6 6 * O O O O O O O O O O O O O O O O O O O O O O O O O O O O O O O O O O O O O O $ 6 6 $ $ j k j 6 f ~.*X%X",
"*X%X8.  + 6 a 3 O O 2 * O O O O O * 2 2 * . O O O O O O O O 2 2 2 . O . . O . $ 2 2 O O O O O O O O O O O 2 $ O 6 a 6 2 O f ~.%X",
"*X%Xw.8 9 a 5 O O O . O O O O O * 6 6 6 6 * O O O O O O O 5 6 6 6 2 * 9 8 2 2 5 y 6 3 * O O O O O O O O O . O O 3 a 6 2 O O 8.%X",
"*X.Xl k k k a 2 . O 2 9 a h $ . 3 j 6 6 6 2 . 2 9 h 2 O * 6 6 6 6 8 v O.| m j a 5 6 y 2 O O O O O $ 9 9 9 4   * h k j 6 O O 8.%X",
"*X~.j j j k 9   * b | | | O.h $ 2 8 s a . * b | | O.m $ O 6 6 6 k | | | | | | M 8 6 2 $ * $ O O 8 M | | | m 2 O 9 j j 2 O O 8.%X",
"%XE.j j j 9 O O v #.| | | O.k 9 2 6 6 6 . q #.| | | O.3   * 2 j | | | | | | | | j # O 9 k a O 2 | | | | | M a 2 2 6 2 O O % I.%X",
"|.E.6 a a 6 O * m O.| | | M a 6 2 2 2 2 * v +.| | | M 9 O O   M | | | | | | | } 8   2 j k j O q +.| | | } j 6 6 2 2 $ O O 0.*X*X",
"{.^.=.5 6 5 . 8 m m | | M a 5 6 6 O   . 3 M m } | M s 2 O O   j | | | | | } m 9 O $ % 6 a 2 $ m n M | M j 5 5 y 2   O O *. X#X|.",
"}.|.U.6 6 $ % g n j n k y 6 6 6 6 2 $ O 2 n j n v 9 5 O . O   a v | } | n a 6 2 . e ,.p # . f k j k v a 6 5 6 6 6 * O z U.|.[.[.",
"%X|.[.3.c c 3.4.k k j j 8 6 6 6 a j j 8 $ k k j j a $ $ 2 $ . 2 j k k j 6 5 6 2 . e T.3.t r R.:.k j j a 6 6 6 a j j 8 3.|.|.{.[.",
"*X#X}.{.[.[.}.3.8 k k k 6 2 2 6 j n n a O 3 k k k 8 2 6 6 6 $   s k j a 5 6 2 2 O >.E.W.T.^.|.w.j k k a 2 2 2 a n m j f E.{.[.^.",
"-X#X{.|.|.|.|.U.x a a a * O O * a a 4 6 2 $ a a a 2 2 6 6 6 -.6.2 a n a 6 6 O O % 9.^.W.W.[.|.K.8 a a 5 . O $ 6 a 8 6 i R.[.[.[.",
"*X|.{.}.}.}.|.|.>.6 6 y 2 O O 2 6 6 O % c ,.5 6 y 2 $ i 6 =.W.|.0.8.2 6 6 6 O O -.^.^.^.^.{.|.K.2 6 6 6 . O $ 6 y 2 O u R.[.{.{.",
"*X|.|.#X#X|.|.|.R.x 6 6 * w c 7.5 6 $ r W.W.*.6 6 2 & 0.R. X|.|.|.{.,.& 7 3 O & 9.[.^.^.[.{.|.[.<.6 6 2 $ c 3.*.6 2 & 9.{.{.}.|.",
"-X|.|.*X*X%X|.|.|.K.u $ O 0.E.|.*.$ % U.[.}.U.u $ O 3.%X*X*X|.}.|.|.{.K.f $ O -.{.[.^.^.[.{.|.|.{.x $ $ z %X%X9.2 $ 3.|.|.|.|.}.",
"-X|.}.#X#X|.|.|.|.|.|.|.|.|.|.|.{.^.^.[.}.|.|.|.|.|.|.|.|.|.|.|.|.|.|.|.|.|.|.|.{.[.^.^.{.|.|.|.|.|.|.|.|.#X|.|.|.|.|.|.|.|.|.}.",
"-X%X|.|.|.|.|.|.|.|.|.|.|.|.|.|.{.^.^.{.|.|.|.|.|.}.{.|.|.|.|.|.|.|.|.|.|.|.|.|.}.[.^.^.|.|.|.|.|.|.{.}.|.|.|.|.|.|.|.|.|.|.|.|.",
"-X*X%X*X*X%X|.|.|.|.|.|.|.|.|.|.{.^.^.[.|.|.|.|.|.{.[.%X*X*X|.}.|.|.|.|.|.|.|.|.{.[.^.^.{.|.|.|.|.}.[.{.*X*X%X|.|.|.|.|.|.|.}.|."
};
